<?xml version="1.0" encoding="UTF-8"?>
<svg width="121px" height="63px" viewBox="0 0 121 63" version="1.1" xmlns="http://www.w3.org/2000/svg" xmlns:xlink="http://www.w3.org/1999/xlink">
    <!-- Generator: sketchtool 41.1 (35376) - http://www.bohemiancoding.com/sketch -->
    <title>393D310A-011F-4684-BFF7-10BE5DBE3967</title>
    <desc>Created with sketchtool.</desc>
    <defs>
        <polygon id="path-1" points="0 58.4149 114.786 58.4149 114.786 -0.0001 0 -0.0001"></polygon>
    </defs>
    <g id="Webpages" stroke="none" stroke-width="1" fill="none" fill-rule="evenodd">
        <g id="Home---Beta-2.0" transform="translate(-40.000000, -119.000000)">
            <g id="LogoVert" transform="translate(40.000000, 119.000000)">
                <g id="Page-1">
                    <path d="M6.5871,51.7626 C6.5871,52.2316 6.4901,52.6506 6.2971,53.0176 C6.1041,53.3846 5.8391,53.6916 5.5011,53.9376 C5.1631,54.1846 4.7651,54.3716 4.3071,54.4976 C3.8481,54.6236 3.3481,54.6866 2.8051,54.6866 C2.3461,54.6866 1.8491,54.6356 1.3121,54.5336 C1.0951,54.4916 0.8891,54.4446 0.6951,54.3926 C0.2451,54.2716 -0.0259,53.8096 0.0691,53.3526 C0.1711,52.8546 0.6691,52.5376 1.1611,52.6676 C1.2621,52.6946 1.3631,52.7186 1.4661,52.7416 C1.8761,52.8316 2.2921,52.8776 2.7141,52.8776 C3.1241,52.8776 3.4651,52.8166 3.7371,52.6966 C4.0081,52.5756 4.1441,52.3586 4.1441,52.0446 C4.1441,51.7676 4.0111,51.5656 3.7461,51.4386 C3.4801,51.3116 3.1311,51.1586 2.6961,50.9776 C2.3461,50.8326 2.0081,50.6846 1.6831,50.5336 C1.3571,50.3826 1.0701,50.2026 0.8231,49.9906 C0.5761,49.7796 0.3771,49.5326 0.2261,49.2486 C0.0751,48.9656 0.0001,48.6126 0.0001,48.1906 C0.0001,47.7316 0.0871,47.3336 0.2621,46.9956 C0.4371,46.6586 0.6781,46.3806 0.9861,46.1636 C1.2941,45.9466 1.6561,45.7836 2.0721,45.6746 C2.4881,45.5666 2.9371,45.5116 3.4201,45.5116 C3.9271,45.5116 4.4121,45.5576 4.8771,45.6486 C5.3411,45.7406 5.7911,45.9016 6.2251,46.1336 L5.8451,47.9006 C5.4951,47.7436 5.1301,47.6146 4.7501,47.5116 C4.3701,47.4096 3.9871,47.3576 3.6011,47.3576 C3.2511,47.3576 2.9701,47.3976 2.7601,47.4756 C2.5481,47.5536 2.4431,47.7186 2.4431,47.9716 C2.4431,48.2126 2.5701,48.3926 2.8231,48.5136 C3.0761,48.6336 3.3781,48.7716 3.7281,48.9286 C3.9811,49.0366 4.2741,49.1596 4.6051,49.2986 C4.9371,49.4366 5.2481,49.6146 5.5381,49.8316 C5.8271,50.0476 6.0741,50.3096 6.2791,50.6166 C6.4841,50.9236 6.5871,51.3056 6.5871,51.7626 L6.5871,51.7626 Z" id="Fill-1" fill="#1659EF"></path>
                    <path d="M23.2041,51.9436 C23.2041,52.4126 23.1071,52.8316 22.9151,53.1986 C22.7211,53.5656 22.4561,53.8726 22.1181,54.1186 C21.7801,54.3656 21.3821,54.5526 20.9241,54.6786 C20.4651,54.8046 19.9651,54.8676 19.4221,54.8676 C18.9631,54.8676 18.4661,54.8166 17.9291,54.7146 C17.7121,54.6726 17.5061,54.6256 17.3121,54.5736 C16.8621,54.4526 16.5911,53.9906 16.6861,53.5336 L16.6861,53.5336 C16.7881,53.0356 17.2861,52.7186 17.7781,52.8486 C17.8791,52.8756 17.9801,52.8996 18.0831,52.9226 C18.4931,53.0126 18.9091,53.0586 19.3311,53.0586 C19.7411,53.0586 20.0821,52.9976 20.3541,52.8776 C20.6251,52.7566 20.7611,52.5396 20.7611,52.2256 C20.7611,51.9486 20.6281,51.7466 20.3631,51.6196 C20.0971,51.4926 19.7481,51.3396 19.3131,51.1586 C18.9631,51.0136 18.6251,50.8656 18.3001,50.7146 C17.9741,50.5636 17.6871,50.3836 17.4401,50.1716 C17.1931,49.9606 16.9941,49.7136 16.8431,49.4296 C16.6921,49.1466 16.6171,48.7936 16.6171,48.3716 C16.6171,47.9126 16.7041,47.5146 16.8791,47.1766 C17.0541,46.8396 17.2951,46.5616 17.6031,46.3446 C17.9111,46.1276 18.2731,45.9646 18.6891,45.8556 C19.1051,45.7476 19.5541,45.6926 20.0371,45.6926 C20.5441,45.6926 21.0291,45.7386 21.4941,45.8296 C21.9581,45.9216 22.4081,46.0826 22.8421,46.3146 L22.4621,48.0816 C22.1121,47.9246 21.7471,47.7956 21.3671,47.6926 C20.9871,47.5906 20.6041,47.5386 20.2181,47.5386 C19.8681,47.5386 19.5871,47.5786 19.3771,47.6566 C19.1651,47.7346 19.0601,47.8996 19.0601,48.1526 C19.0601,48.3936 19.1871,48.5736 19.4401,48.6946 C19.6931,48.8146 19.9951,48.9526 20.3451,49.1096 C20.5981,49.2176 20.8911,49.3406 21.2221,49.4796 C21.5541,49.6176 21.8651,49.7956 22.1551,50.0126 C22.4441,50.2286 22.6911,50.4906 22.8961,50.7976 C23.1011,51.1046 23.2041,51.4866 23.2041,51.9436" id="Fill-3" fill="#1659EF"></path>
                    <path d="M9.2291,58.234 L10.4241,54.777 L7.1841,45.693 L8.9081,45.693 C9.4091,45.693 9.8481,46.025 9.9851,46.507 L11.6181,52.244 L13.1841,46.518 C13.3171,46.031 13.7601,45.693 14.2651,45.693 L15.9251,45.693 L11.7541,58.099 C11.7271,58.18 11.6511,58.234 11.5661,58.234 L9.2291,58.234 Z" id="Fill-5" fill="#1659EF"></path>
                    <path d="M24.0686,45.6929 L25.4986,45.6929 L25.4986,43.4129 L27.9776,43.4129 L27.9776,45.6929 L30.6196,45.6929 L30.6196,47.6289 L28.3386,47.6289 C28.1396,47.6289 27.9776,47.7909 27.9776,47.9899 L27.9776,51.4119 C27.9776,51.8219 28.0526,52.1479 28.2036,52.3889 C28.3546,52.6299 28.6526,52.7509 29.0996,52.7509 C29.5696,52.7509 30.0156,52.6849 30.4386,52.5519 L30.6196,54.3069 C30.3536,54.4159 30.0226,54.5059 29.6246,54.5779 C29.2266,54.6509 28.8276,54.6869 28.4296,54.6869 C27.8986,54.6869 27.4496,54.6059 27.0816,54.4429 C26.7136,54.2799 26.4116,54.0539 26.1766,53.7639 C25.9416,53.4749 25.7696,53.1369 25.6606,52.7509 C25.5526,52.3649 25.4986,51.9429 25.4986,51.4839 L25.4986,47.9899 C25.4986,47.7909 25.3366,47.6289 25.1366,47.6289 L24.0686,47.6289 L24.0686,45.6929 Z" id="Fill-7" fill="#1659EF"></path>
                    <path d="M35.8492,47.1769 C35.3422,47.1769 34.9532,47.3549 34.6822,47.7109 C34.4102,48.0669 34.2502,48.5159 34.2022,49.0589 L37.2242,49.0589 C37.2852,48.4919 37.2002,48.0369 36.9712,47.6929 C36.7422,47.3489 36.3682,47.1769 35.8492,47.1769 M35.9942,45.5119 C36.5732,45.5119 37.0892,45.6029 37.5412,45.7839 C37.9942,45.9649 38.3702,46.2209 38.6722,46.5529 C38.9732,46.8849 39.2032,47.2829 39.3602,47.7469 C39.5162,48.2119 39.5952,48.7329 39.5952,49.3119 C39.5952,49.5539 39.5802,49.7979 39.5502,50.0449 C39.5192,50.2929 39.4742,50.5189 39.4142,50.7239 L34.5382,50.7239 C34.3402,50.7239 34.1892,50.9029 34.2202,51.0989 C34.2952,51.5719 34.4832,51.9619 34.7812,52.2669 C35.1552,52.6499 35.7522,52.8409 36.5732,52.8409 C37.0432,52.8409 37.5022,52.7979 37.9482,52.7099 C38.3942,52.6229 38.7922,52.4979 39.1422,52.3349 L39.4502,54.0179 C39.0162,54.2349 38.5212,54.4009 37.9662,54.5149 C37.4112,54.6299 36.8382,54.6869 36.2472,54.6869 C35.5112,54.6869 34.8602,54.5779 34.2932,54.3609 C33.7262,54.1439 33.2462,53.8359 32.8542,53.4379 C32.4622,53.0399 32.1632,52.5609 31.9582,51.9999 C31.7532,51.4389 31.6512,50.8209 31.6512,50.1449 C31.6512,49.4569 31.7502,48.8269 31.9492,48.2539 C32.1482,47.6809 32.4352,47.1919 32.8092,46.7879 C33.1822,46.3839 33.6382,46.0699 34.1752,45.8469 C34.7122,45.6239 35.3182,45.5119 35.9942,45.5119" id="Fill-9" fill="#1659EF"></path>
                    <path d="M50.9775,47.4845 C50.5915,47.4845 50.2565,47.5935 49.9735,47.8105 C49.8265,47.9225 49.7315,48.0375 49.6505,48.1565 C49.5085,48.3655 49.4305,48.6125 49.4315,48.8655 L49.4315,49.1945 C49.4315,49.4435 49.4215,49.6865 49.4215,49.9275 L49.4215,54.5065 L46.9425,54.5065 L46.9425,49.9095 C46.9425,49.0895 46.8275,48.4795 46.5985,48.0815 C46.3685,47.6835 45.9825,47.4845 45.4405,47.4845 C45.0665,47.4845 44.7555,47.5695 44.5085,47.7375 C44.4115,47.8045 44.3205,47.8755 44.2355,47.9505 C44.0115,48.1495 43.8835,48.4335 43.8835,48.7325 L43.8835,54.5065 L41.4045,54.5065 L41.4045,46.0175 C41.4045,45.8385 41.5495,45.6925 41.7295,45.6925 L43.4685,45.6925 C43.6475,45.6925 43.7935,45.8385 43.7935,46.0175 L43.7935,46.5805 C44.2105,46.1625 44.4505,46.0705 44.8975,45.8465 C45.3435,45.6235 45.8315,45.5115 46.3625,45.5115 C46.9785,45.5115 47.4845,45.6505 47.8825,45.9285 C48.2815,46.2055 48.4325,46.3165 48.7235,46.8245 C49.2895,46.2585 49.6865,46.0855 50.1815,45.8555 C50.6755,45.6265 51.2305,45.5115 51.8465,45.5115 C52.4135,45.5115 52.8925,45.6235 53.2855,45.8465 C53.6765,46.0705 53.9965,46.3805 54.2445,46.7785 C54.4915,47.1765 54.6725,47.6445 54.7865,48.1815 C54.9015,48.7185 54.9585,49.3005 54.9585,49.9275 L54.9585,54.5065 L52.4795,54.5065 L52.4795,49.9095 C52.4795,49.0895 52.3645,48.4795 52.1355,48.0815 C51.9065,47.6835 51.5205,47.4845 50.9775,47.4845" id="Fill-11" fill="#1659EF"></path>
                    <path d="M67.1377,50.1085 C67.1377,49.7465 67.1017,49.3995 67.0287,49.0675 C66.9567,48.7365 66.8397,48.4435 66.6767,48.1905 C66.5137,47.9365 66.2987,47.7345 66.0337,47.5845 C65.7687,47.4335 65.4487,47.3575 65.0747,47.3575 C64.6887,47.3575 64.3657,47.4335 64.1067,47.5845 C63.8467,47.7345 63.6367,47.9365 63.4737,48.1905 C63.3107,48.4435 63.1927,48.7365 63.1207,49.0675 C63.0477,49.3995 63.0117,49.7465 63.0117,50.1085 C63.0117,50.4705 63.0477,50.8145 63.1207,51.1405 C63.1927,51.4655 63.3107,51.7555 63.4737,52.0085 C63.6367,52.2615 63.8467,52.4645 64.1067,52.6145 C64.3657,52.7655 64.6887,52.8405 65.0747,52.8405 C65.4487,52.8405 65.7687,52.7655 66.0337,52.6145 C66.2987,52.4645 66.5137,52.2615 66.6767,52.0085 C66.8397,51.7555 66.9567,51.4655 67.0287,51.1405 C67.1017,50.8145 67.1377,50.4705 67.1377,50.1085 M69.6167,50.1085 C69.6167,50.7485 69.5177,51.3455 69.3187,51.8995 C69.1197,52.4555 68.8267,52.9405 68.4407,53.3565 C68.0547,53.7735 67.5807,54.0985 67.0207,54.3335 C66.4597,54.5695 65.8107,54.6865 65.0747,54.6865 C64.3387,54.6865 63.6907,54.5695 63.1297,54.3335 C62.5687,54.0985 62.0947,53.7735 61.7087,53.3565 C61.3227,52.9405 61.0297,52.4555 60.8317,51.8995 C60.6317,51.3455 60.5327,50.7485 60.5327,50.1085 C60.5327,49.4695 60.6317,48.8715 60.8317,48.3165 C61.0297,47.7625 61.3227,47.2765 61.7087,46.8605 C62.0947,46.4435 62.5687,46.1155 63.1297,45.8735 C63.6907,45.6325 64.3387,45.5115 65.0747,45.5115 C65.8107,45.5115 66.4597,45.6325 67.0207,45.8735 C67.5807,46.1155 68.0547,46.4435 68.4407,46.8605 C68.8267,47.2765 69.1197,47.7625 69.3187,48.3165 C69.5177,48.8715 69.6167,49.4695 69.6167,50.1085" id="Fill-13" fill="#1659EF"></path>
                    <path d="M70.698,54.506 L70.698,45.969 C70.698,45.817 70.822,45.693 70.974,45.693 L72.81,45.693 C72.963,45.693 73.087,45.817 73.087,45.969 L73.087,46.465 C73.3,46.252 73.756,46.004 74.046,45.857 C74.222,45.768 74.407,45.703 74.6,45.66 C74.886,45.596 75.327,45.512 75.656,45.512 C76.223,45.512 76.709,45.633 77.113,45.874 C77.517,46.115 77.846,46.438 78.1,46.842 C78.353,47.246 78.54,47.717 78.661,48.254 C78.781,48.791 78.842,49.348 78.842,49.928 L78.842,54.506 L76.362,54.506 L76.362,49.91 C76.362,49.113 76.238,48.51 75.991,48.1 C75.744,47.69 75.337,47.484 74.77,47.484 C74.408,47.484 74.094,47.569 73.829,47.738 C73.826,47.739 73.823,47.741 73.821,47.743 C73.407,48.008 73.177,48.485 73.177,48.976 L73.177,54.506 L70.698,54.506 Z" id="Fill-15" fill="#1659EF"></path>
                    <path d="M88.8356,49.9638 C89.2936,49.9638 89.6616,49.8348 89.9396,49.5748 C90.2166,49.3158 90.3556,48.9688 90.3556,48.5338 C90.3556,48.0878 90.2196,47.7348 89.9486,47.4758 C89.6766,47.2158 89.3056,47.0868 88.8356,47.0868 C88.3646,47.0868 87.9936,47.2128 87.7226,47.4668 C87.4506,47.7198 87.3156,48.0758 87.3156,48.5338 C87.3156,48.9808 87.4536,49.3308 87.7316,49.5838 C88.0086,49.8368 88.3766,49.9638 88.8356,49.9638 L88.8356,49.9638 Z M88.0576,54.4338 C87.8156,54.5658 87.5776,54.7288 87.3426,54.9218 C87.1076,55.1148 86.9896,55.3748 86.9896,55.7008 C86.9896,56.0738 87.1496,56.3488 87.4696,56.5238 C87.7886,56.6988 88.2256,56.7858 88.7816,56.7858 C89.0946,56.7858 89.4056,56.7558 89.7136,56.6958 C90.0206,56.6348 90.2946,56.5478 90.5366,56.4328 C90.7776,56.3188 90.9736,56.1768 91.1246,56.0078 C91.2756,55.8388 91.3506,55.6398 91.3506,55.4108 C91.3506,55.1218 91.2336,54.9188 90.9976,54.8048 C90.7626,54.6898 90.4516,54.6208 90.0656,54.5968 L88.0576,54.4338 Z M93.6126,45.6928 L93.6126,45.9468 C93.6126,46.7158 92.9896,47.3398 92.2196,47.3398 C92.4246,47.6898 92.5266,48.0938 92.5266,48.5518 C92.5266,48.9748 92.4426,49.3668 92.2736,49.7288 C92.1046,50.0908 91.8636,50.4068 91.5496,50.6788 C91.2356,50.9498 90.8506,51.1608 90.3916,51.3118 C89.9336,51.4628 89.4146,51.5378 88.8356,51.5378 L88.7176,51.5378 C88.6636,51.5378 88.6006,51.5318 88.5276,51.5198 C88.4676,51.6168 88.4196,51.7038 88.3836,51.7828 C88.3466,51.8608 88.3286,51.9608 88.3286,52.0808 C88.3286,52.2858 88.4196,52.4308 88.6006,52.5158 C88.7816,52.5998 89.0166,52.6538 89.3056,52.6778 L90.7536,52.7688 C91.6586,52.8288 92.3676,53.0338 92.8806,53.3838 C93.3926,53.7338 93.6496,54.3008 93.6496,55.0848 C93.6496,55.6158 93.5076,56.0858 93.2236,56.4968 C92.9406,56.9068 92.5636,57.2538 92.0926,57.5368 C91.6226,57.8208 91.0826,58.0378 90.4736,58.1888 C89.8636,58.3398 89.2336,58.4148 88.5816,58.4148 C88.0756,58.4148 87.5866,58.3758 87.1166,58.2968 C86.6456,58.2188 86.2266,58.0888 85.8586,57.9078 C85.4906,57.7268 85.1976,57.4948 84.9806,57.2118 C84.7636,56.9278 84.6556,56.5808 84.6556,56.1708 C84.6556,55.8688 84.7216,55.6068 84.8546,55.3838 C84.9866,55.1608 85.1586,54.9678 85.3696,54.8048 C85.5806,54.6418 85.8226,54.5088 86.0936,54.4068 C86.3656,54.3038 86.6456,54.2168 86.9356,54.1438 C86.6816,54.0118 86.4826,53.8458 86.3376,53.6468 C86.1936,53.4468 86.1206,53.2028 86.1206,52.9138 C86.1206,52.7088 86.1596,52.5218 86.2386,52.3528 C86.3166,52.1838 86.4136,52.0328 86.5276,51.8998 C86.6426,51.7678 86.7726,51.6528 86.9176,51.5558 C87.0616,51.4598 87.2066,51.3818 87.3516,51.3208 C86.6396,51.1158 86.0936,50.7688 85.7136,50.2808 C85.3336,49.7918 85.1436,49.2158 85.1436,48.5518 C85.1436,48.1178 85.2256,47.7168 85.3876,47.3488 C85.5506,46.9808 85.7886,46.6608 86.1026,46.3898 C86.4166,46.1178 86.8026,45.9038 87.2606,45.7468 C87.7196,45.5908 88.2446,45.5118 88.8356,45.5118 C89.0766,45.5118 89.3086,45.5268 89.5326,45.5568 C89.7556,45.5878 89.9696,45.6328 90.1746,45.6928 L93.6126,45.6928 Z" id="Fill-17" fill="#1659EF"></path>
                    <path d="M100.5075,47.8103 L100.0915,47.8103 C99.4755,47.8103 98.9635,47.9073 98.5535,48.1003 C98.4675,48.1403 98.3855,48.1843 98.3075,48.2313 C97.8445,48.5133 97.5755,49.0293 97.5755,49.5713 L97.5755,54.5063 L95.0965,54.5063 L95.0965,45.6933 L97.4855,45.6933 L97.4855,46.4153 C97.8455,46.2193 97.9755,46.1033 98.2025,45.9993 C98.7015,45.7713 98.9655,45.6743 99.6155,45.6403 C99.8925,45.6253 100.2905,45.6323 100.5075,45.6933 L100.5075,47.8103 Z" id="Fill-19" fill="#1659EF"></path>
                    <mask id="mask-2" fill="white">
                        <use xlink:href="#path-1"></use>
                    </mask>
                    <g id="Clip-22"></g>
                    <path d="M101.955,54.5059 L104.434,54.5059 L104.434,45.6929 L101.955,45.6929 L101.955,54.5059 Z M101.756,43.1229 C101.756,42.7249 101.889,42.3879 102.155,42.1099 C102.42,41.8329 102.763,41.6939 103.186,41.6939 C103.608,41.6939 103.955,41.8329 104.226,42.1099 C104.498,42.3879 104.634,42.7249 104.634,43.1229 C104.634,43.5099 104.498,43.8439 104.226,44.1279 C103.955,44.4109 103.608,44.5529 103.186,44.5529 C102.763,44.5529 102.42,44.4109 102.155,44.1279 C101.889,43.8439 101.756,43.5099 101.756,43.1229 L101.756,43.1229 Z" id="Fill-21" fill="#1659EF" mask="url(#mask-2)"></path>
                    <path d="M110.551,52.7687 C110.937,52.7687 111.272,52.6937 111.555,52.5427 C111.558,52.5407 111.561,52.5397 111.564,52.5377 C112.035,52.2857 112.306,51.7727 112.306,51.2387 L112.306,47.5747 C111.968,47.4547 111.57,47.3937 111.112,47.3937 C110.316,47.3937 109.712,47.6387 109.302,48.1267 C108.892,48.6157 108.687,49.2937 108.687,50.1627 C108.687,50.5367 108.723,50.8837 108.796,51.2037 C108.868,51.5237 108.98,51.7977 109.13,52.0267 C109.281,52.2557 109.474,52.4367 109.71,52.5697 C109.945,52.7027 110.225,52.7687 110.551,52.7687 M114.414,54.5057 L112.665,54.5057 C112.527,54.5057 112.415,54.3937 112.415,54.2557 L112.415,53.7977 C111.9,54.1257 111.732,54.2057 111.253,54.4037 C110.776,54.6007 110.316,54.6867 109.7,54.6867 C109.194,54.6867 108.726,54.5757 108.298,54.3517 C107.87,54.1287 107.502,53.8187 107.194,53.4207 C106.886,53.0217 106.645,52.5487 106.47,51.9997 C106.295,51.4507 106.208,50.8507 106.208,50.1987 C106.208,49.4387 106.328,48.7667 106.57,48.1807 C106.811,47.5957 107.137,47.1077 107.547,46.7157 C107.957,46.3237 108.436,46.0247 108.985,45.8197 C109.535,45.6147 110.123,45.5117 110.75,45.5117 C111.064,45.5117 111.35,45.5327 111.61,45.5757 C111.869,45.6177 112.101,45.6747 112.306,45.7477 L112.306,44.2087 C112.306,42.8397 113.416,41.7297 114.786,41.7297 L114.786,54.1347 C114.786,54.3397 114.619,54.5057 114.414,54.5057" id="Fill-23" fill="#1659EF" mask="url(#mask-2)"></path>
                    <path d="M49.1596,1.0804 L50.5696,4.9484 L54.0146,3.7604 C55.1596,3.3654 56.4066,3.9734 56.8016,5.1184 C57.1956,6.2624 56.5876,7.5094 55.4436,7.9044 L48.1306,10.4264 C47.2616,10.9474 46.8446,12.0224 47.1886,13.0184 L47.1886,13.0184 C47.5416,14.0434 48.5806,14.6364 49.6156,14.4644 L63.6776,9.7174 C65.5096,9.0984 67.4956,10.0904 68.1026,11.9264 C68.7036,13.7454 67.6756,15.7254 65.8606,16.3384 L55.8486,19.7194 L55.8566,19.7414 L47.1426,22.7334 C45.3296,23.3554 44.3836,25.3154 44.9946,27.1324 C45.6106,28.9654 47.6126,29.9424 49.4416,29.3144 L51.7386,28.5254 L62.2786,24.8914 C63.4226,24.4964 64.6716,25.1044 65.0666,26.2484 C65.4616,27.3924 64.8536,28.6404 63.7096,29.0344 L59.8386,30.3694 L61.3766,34.5864 C70.6056,31.2214 75.3956,20.9774 72.0216,11.7244 C68.6476,2.4724 58.3886,-2.2846 49.1596,1.0804" id="Fill-24" fill="#1659EF" mask="url(#mask-2)"></path>
                    <path d="M43.4066,16.3594 C44.4576,15.9934 45.0136,14.8444 44.6476,13.7934 C44.2826,12.7414 43.1336,12.1864 42.0816,12.5514 C41.0306,12.9174 40.4746,14.0664 40.8406,15.1184 C41.2066,16.1694 42.3556,16.7254 43.4066,16.3594" id="Fill-25" fill="#1659EF" mask="url(#mask-2)"></path>
                </g>
            </g>
        </g>
    </g>
</svg>